<svg width="128" height="128" viewBox="0 0 128 128" fill="none" xmlns="http://www.w3.org/2000/svg">
<path d="M43.2926 103L27 26H39.9082L49.5106 79.8149H49.9828L60.4511 26H71.5489L82.0172 79.9213H82.4894L92.0918 26H105L88.7074 103H77.1372L66.2755 52.163H65.8032L54.8628 103H43.2926Z" fill="black"/>
<path d="M60 26L4 103H20.5L71.5 26H60Z" fill="black"/>
<mask id="path-3-inside-1_1_2" fill="white">
<path fill-rule="evenodd" clip-rule="evenodd" d="M60.4511 26L55.8568 49.6182L71.5 26H60.4511ZM37.7742 76.9194L46.6128 63.5748L43.8665 48.1836L34.4372 61.1488L37.7742 76.9194Z"/>
</mask>
<path fill-rule="evenodd" clip-rule="evenodd" d="M60.4511 26L55.8568 49.6182L71.5 26H60.4511ZM37.7742 76.9194L46.6128 63.5748L43.8665 48.1836L34.4372 61.1488L37.7742 76.9194Z" fill="white"/>
<path d="M55.8568 49.6182L54.8752 49.4272L56.6905 50.1704L55.8568 49.6182ZM60.4511 26V25H59.6268L59.4695 25.8091L60.4511 26ZM71.5 26L72.3337 26.5522L73.3618 25H71.5V26ZM37.7742 76.9194L36.7958 77.1264L37.2899 79.4615L38.6079 77.4716L37.7742 76.9194ZM46.6128 63.5748L47.4465 64.127L47.6676 63.7932L47.5973 63.3991L46.6128 63.5748ZM43.8665 48.1836L44.8509 48.0079L44.4386 45.6968L43.0578 47.5954L43.8665 48.1836ZM34.4372 61.1488L33.6285 60.5606L33.3668 60.9205L33.4589 61.3558L34.4372 61.1488ZM56.8384 49.8091L61.4327 26.1909L59.4695 25.8091L54.8752 49.4272L56.8384 49.8091ZM56.6905 50.1704L72.3337 26.5522L70.6663 25.4478L55.0231 49.066L56.6905 50.1704ZM60.4511 27H71.5V25H60.4511V27ZM38.6079 77.4716L47.4465 64.127L45.7791 63.0226L36.9405 76.3672L38.6079 77.4716ZM42.882 48.3592L45.6284 63.7504L47.5973 63.3991L44.8509 48.0079L42.882 48.3592ZM43.0578 47.5954L33.6285 60.5606L35.246 61.737L44.6752 48.7718L43.0578 47.5954ZM38.7525 76.7124L35.4156 60.9418L33.4589 61.3558L36.7958 77.1264L38.7525 76.7124Z" fill="black" mask="url(#path-3-inside-1_1_2)"/>
<path d="M91 36L94.0448 26H123.5L121.448 36H91Z" fill="black"/>
<path d="M89 57L91.8106 47H119L117.106 57H89Z" fill="black"/>
</svg>
